<?xml version="1.0" encoding="utf-8"?>
<!-- Generator: Adobe Illustrator 27.0.0, SVG Export Plug-In . SVG Version: 6.00 Build 0)  -->
<svg version="1.1" id="Capa_1" xmlns="http://www.w3.org/2000/svg" xmlns:xlink="http://www.w3.org/1999/xlink" x="0px" y="0px"
	 viewBox="0 0 250 75" style="enable-background:new 0 0 250 75;" xml:space="preserve">
<style type="text/css">
	.st0{fill:#BA6868;}
	.st1{fill:#FFFFFF;}
	.st2{fill:#A80C0C;}
	.st3{fill:none;stroke:#A80C0C;stroke-width:0.25;stroke-miterlimit:10;}
</style>
<g>
	<g>
		<g>
			<path class="st1" d="M75.01,60.85H14.44V0.28h60.57V60.85z M16.29,59h56.88V2.12H16.29V59z"/>
			<rect x="21.23" y="40.72" class="st1" width="13.35" height="13.35"/>
			<path class="st1" d="M68.08,67.79H7.51V7.22h60.57V67.79z M9.35,65.94h56.88V9.06H9.35V65.94z"/>
			<path class="st1" d="M61.14,74.72H0.57V14.15h60.57V74.72z M2.41,72.88H59.3V16H2.41V72.88z"/>
		</g>
	</g>
	<g>
		<g>
			<g>
				<path class="st1" d="M86.82,39.56L82.16,27.9h3.07l1.97,5.38c0.6,1.63,1.05,3.01,1.36,4.2h0.04c0.27-1.09,0.79-2.51,1.42-4.16
					l2.06-5.42h2.92l-4.79,11.66H86.82z"/>
				<path class="st1" d="M101.98,27.9v11.66h-2.86V27.9H101.98z"/>
				<path class="st1" d="M107.68,27.9h5.24c3.85,0,6.37,2.24,6.37,5.68c0,3.4-2.44,5.97-6.49,5.97h-5.12V27.9z M110.54,37.52h2.14
					c2.54,0,3.66-1.66,3.66-3.93c0-1.9-1.05-3.65-3.64-3.65h-2.16V37.52z"/>
				<path class="st1" d="M133.43,34.53h-6.32v2.96h6.98l-0.34,2.07h-9.41V27.9h9.38v2.07h-6.6v2.5h6.32V34.53z"/>
				<path class="st1" d="M151.05,33.69c0,3.24-2.21,6.04-6.5,6.04c-4.15,0-6.32-2.66-6.32-6c0-3.39,2.4-6,6.51-6
					C148.6,27.74,151.05,30.12,151.05,33.69z M141.18,33.68c0,2.28,1.13,4,3.48,4c2.54,0,3.44-1.88,3.44-3.95
					c0-2.21-1.03-3.94-3.49-3.94C142.22,29.79,141.18,31.41,141.18,33.68z"/>
				<path class="st1" d="M166.12,27.9v11.66h-2.86V27.9H166.12z"/>
				<path class="st1" d="M182.91,35.19c0-1.99,0.04-4.22,0.09-5.54h-0.09c-0.62,2.38-1.94,6.26-3.21,9.91h-2.43
					c-0.96-3.19-2.33-7.61-2.91-9.94h-0.09c0.11,1.37,0.17,3.77,0.17,5.77v4.17h-2.61V27.9h4.25c1.03,3.05,2.19,6.87,2.58,8.6h0.02
					c0.32-1.53,1.78-5.62,2.88-8.6h4.1v11.66h-2.76V35.19z"/>
				<path class="st1" d="M193.83,36.87l-1.03,2.69h-2.81l4.49-11.66h3.59l4.68,11.66h-3.01l-1.09-2.69H193.83z M198.05,34.8
					c-0.94-2.46-1.54-4.03-1.86-5.08h-0.02c-0.33,1.15-0.99,2.98-1.74,5.08H198.05z"/>
				<path class="st1" d="M218.3,39.56h-2.1c-0.11-0.36-0.18-0.76-0.22-1.15c-0.73,0.87-2.02,1.34-3.86,1.34
					c-3.84,0-5.98-2.56-5.98-5.88c0-3.5,2.31-6.14,6.48-6.14c3.4,0,5.41,1.69,5.73,3.68h-2.86c-0.27-0.78-0.97-1.7-2.91-1.7
					c-2.71,0-3.49,2-3.49,4.06c0,2.01,0.89,3.98,3.51,3.98c2.45,0,2.9-1.5,2.9-2.54v-0.11h-2.9v-2.07h5.7V39.56z"/>
				<path class="st1" d="M232.86,34.53h-6.32v2.96h6.98l-0.34,2.07h-9.41V27.9h9.38v2.07h-6.6v2.5h6.32V34.53z"/>
				<path class="st1" d="M238.09,39.56V27.9h3.54c1.65,2.62,4.71,7.34,5.31,8.61h0.04c-0.15-1.22-0.15-3.24-0.15-5.15V27.9h2.59
					v11.66h-3.36c-1.42-2.28-4.8-7.7-5.46-9.05h-0.04c0.1,1.02,0.13,3.41,0.13,5.5v3.54H238.09z"/>
			</g>
			<g>
				<path class="st1" d="M113.73,46.24h-2.4v1.5h2.63l-0.08,0.48h-3.18v-4.25h3.14v0.48h-2.51v1.3h2.4V46.24z"/>
				<path class="st1" d="M119.97,46.08c0,1.17-0.74,2.21-2.26,2.21c-1.42,0-2.21-0.97-2.21-2.18c0-1.22,0.81-2.18,2.27-2.18
					C119.12,43.92,119.97,44.81,119.97,46.08z M116.16,46.08c0,0.92,0.53,1.72,1.57,1.72c1.12,0,1.56-0.81,1.56-1.72
					c0-0.91-0.5-1.69-1.56-1.69C116.64,44.4,116.16,45.18,116.16,46.08z M118.86,47.72l1.42,0.88L119.89,49l-1.63-1.01L118.86,47.72
					z"/>
				<path class="st1" d="M122.56,43.98v2.56c0,1,0.62,1.27,1.24,1.27c0.72,0,1.23-0.29,1.23-1.27v-2.56h0.64v2.53
					c0,1.38-0.87,1.77-1.89,1.77c-1,0-1.88-0.43-1.88-1.73v-2.57H122.56z"/>
				<path class="st1" d="M128.48,43.98v4.25h-0.64v-4.25H128.48z"/>
				<path class="st1" d="M130.71,43.98h1.83c0.94,0,1.58,0.46,1.58,1.24c0,0.83-0.68,1.27-1.62,1.27h-1.15v1.74h-0.64V43.98z
					 M131.35,46.01h1.12c0.66,0,0.99-0.28,0.99-0.78c0-0.52-0.4-0.78-0.96-0.78h-1.14V46.01z"/>
				<path class="st1" d="M140.21,46.08c0,1.17-0.74,2.21-2.26,2.21c-1.42,0-2.21-0.97-2.21-2.18c0-1.22,0.81-2.18,2.27-2.18
					C139.37,43.92,140.21,44.81,140.21,46.08z M136.41,46.08c0,0.92,0.53,1.72,1.57,1.72c1.12,0,1.56-0.81,1.56-1.72
					c0-0.91-0.5-1.69-1.56-1.69C136.89,44.4,136.41,45.18,136.41,46.08z"/>
				<path class="st1" d="M142.42,47.04c0.13,0.51,0.53,0.78,1.22,0.78c0.75,0,1.05-0.31,1.05-0.71c0-0.43-0.24-0.66-1.2-0.87
					c-1.14-0.24-1.53-0.59-1.53-1.18c0-0.63,0.53-1.15,1.6-1.15c1.15,0,1.62,0.58,1.68,1.14h-0.65c-0.09-0.38-0.35-0.69-1.06-0.69
					c-0.59,0-0.92,0.23-0.92,0.64c0,0.4,0.27,0.56,1.12,0.74c1.38,0.29,1.62,0.77,1.62,1.31c0,0.69-0.58,1.22-1.75,1.22
					c-1.21,0-1.73-0.58-1.83-1.24H142.42z"/>
				<path class="st1" d="M152.92,46.24h-2.4v1.5h2.63l-0.08,0.48h-3.18v-4.25h3.14v0.48h-2.51v1.3h2.4V46.24z"/>
				<path class="st1" d="M158.26,43.98v4.25h-0.64v-4.25H158.26z"/>
				<path class="st1" d="M160.48,48.22v-4.25h0.85c0.69,0.99,2.2,3.1,2.47,3.57h0.01c-0.05-0.55-0.04-1.21-0.04-1.91v-1.66h0.6v4.25
					h-0.79c-0.64-0.92-2.21-3.19-2.51-3.67h-0.01c0.04,0.48,0.04,1.2,0.04,1.97v1.7H160.48z"/>
				<path class="st1" d="M166.84,47.04c0.13,0.51,0.53,0.78,1.22,0.78c0.75,0,1.05-0.31,1.05-0.71c0-0.43-0.24-0.66-1.2-0.87
					c-1.14-0.24-1.53-0.59-1.53-1.18c0-0.63,0.53-1.15,1.6-1.15c1.15,0,1.62,0.58,1.68,1.14h-0.65c-0.09-0.38-0.35-0.69-1.06-0.69
					c-0.59,0-0.92,0.23-0.92,0.64c0,0.4,0.27,0.56,1.12,0.74c1.38,0.29,1.62,0.77,1.62,1.31c0,0.69-0.58,1.22-1.75,1.22
					c-1.21,0-1.73-0.58-1.83-1.24H166.84z"/>
				<path class="st1" d="M172.62,44.46h-1.56v-0.48h3.76v0.48h-1.56v3.76h-0.64V44.46z"/>
				<path class="st1" d="M176.54,46.95l-0.52,1.27h-0.64l1.72-4.25h0.79l1.79,4.25H179l-0.53-1.27H176.54z M178.3,46.47
					c-0.46-1.12-0.71-1.71-0.82-2.03h-0.01c-0.12,0.36-0.4,1.08-0.77,2.03H178.3z"/>
				<path class="st1" d="M181.36,43.98H182v3.76h2.51l-0.09,0.48h-3.06V43.98z"/>
				<path class="st1" d="M187.07,46.95l-0.52,1.27h-0.64l1.72-4.25h0.79l1.79,4.25h-0.68l-0.53-1.27H187.07z M188.83,46.47
					c-0.46-1.12-0.71-1.71-0.82-2.03H188c-0.12,0.36-0.4,1.08-0.77,2.03H188.83z"/>
				<path class="st1" d="M195.63,47.02c-0.21,0.72-0.82,1.26-1.92,1.26c-1.44,0-2.17-0.96-2.17-2.16c0-1.15,0.73-2.2,2.19-2.2
					c1.14,0,1.75,0.57,1.9,1.28h-0.64c-0.17-0.46-0.52-0.81-1.28-0.81c-1.06,0-1.5,0.85-1.5,1.71c0,0.83,0.41,1.71,1.53,1.71
					c0.74,0,1.07-0.38,1.25-0.79H195.63z"/>
				<path class="st1" d="M198.13,43.98v4.25h-0.64v-4.25H198.13z"/>
				<path class="st1" d="M204.52,46.08c0,1.17-0.74,2.21-2.26,2.21c-1.42,0-2.21-0.97-2.21-2.18c0-1.22,0.81-2.18,2.27-2.18
					C203.67,43.92,204.52,44.81,204.52,46.08z M200.71,46.08c0,0.92,0.53,1.72,1.57,1.72c1.12,0,1.56-0.81,1.56-1.72
					c0-0.91-0.5-1.69-1.56-1.69C201.19,44.4,200.71,45.18,200.71,46.08z"/>
				<path class="st1" d="M206.43,48.22v-4.25h0.85c0.69,0.99,2.2,3.1,2.47,3.57h0.01c-0.05-0.55-0.04-1.21-0.04-1.91v-1.66h0.6v4.25
					h-0.79c-0.64-0.92-2.21-3.19-2.51-3.67H207c0.04,0.48,0.04,1.2,0.04,1.97v1.7H206.43z"/>
				<path class="st1" d="M215.57,46.24h-2.4v1.5h2.63l-0.08,0.48h-3.18v-4.25h3.14v0.48h-2.51v1.3h2.4V46.24z"/>
				<path class="st1" d="M217.95,47.04c0.13,0.51,0.53,0.78,1.22,0.78c0.75,0,1.05-0.31,1.05-0.71c0-0.43-0.24-0.66-1.2-0.87
					c-1.14-0.24-1.53-0.59-1.53-1.18c0-0.63,0.53-1.15,1.6-1.15c1.15,0,1.62,0.58,1.68,1.14h-0.65c-0.09-0.38-0.35-0.69-1.06-0.69
					c-0.59,0-0.92,0.23-0.92,0.64c0,0.4,0.27,0.56,1.12,0.74c1.38,0.29,1.62,0.77,1.62,1.31c0,0.69-0.58,1.22-1.75,1.22
					c-1.21,0-1.73-0.58-1.83-1.24H217.95z"/>
			</g>
		</g>
	</g>
</g>
</svg>
